<?xml version="1.0" encoding="UTF-8"?>
<svg xmlns="http://www.w3.org/2000/svg" xmlns:xlink="http://www.w3.org/1999/xlink" version="1.1" width="512" height="512" x="0" y="0" viewBox="0 0 682.667 682.667" style="enable-background:new 0 0 512 512" xml:space="preserve" class="">
  <g>
    <defs>
      <clipPath id="a">
        <path d="M0 512h512V0H0Z" fill="#1c5fe7" opacity="1" data-original="#000000"/>
      </clipPath>
    </defs>
    <g clip-path="url(#a)" transform="matrix(1.33333 0 0 -1.33333 0 682.667)">
      <path d="M0 0c19.929 0 36.186 16.257 36.186 36.215 0 19.929-16.257 36.186-36.186 36.186-19.957 0-36.214-16.257-36.214-36.186C-36.214 16.257-19.957 0 0 0Z" style="stroke-width:15;stroke-linecap:round;stroke-linejoin:round;stroke-miterlimit:10;stroke-dasharray:none;stroke-opacity:1" transform="translate(256.014 432.099)" fill="none" stroke="#1c5fe7" stroke-width="15" stroke-linecap="round" stroke-linejoin="round" stroke-miterlimit="10" stroke-dasharray="none" stroke-opacity="" data-original="#000000" opacity="1" class=""/>
      <path d="M0 0c19.929 0 36.186 16.257 36.186 36.215 0 19.929-16.257 36.186-36.186 36.186-19.957 0-36.214-16.257-36.214-36.186C-36.214 16.257-19.957 0 0 0Z" style="stroke-width:15;stroke-linecap:round;stroke-linejoin:round;stroke-miterlimit:10;stroke-dasharray:none;stroke-opacity:1" transform="translate(256.014 432.099)" fill="none" stroke="#1c5fe7" stroke-width="15" stroke-linecap="round" stroke-linejoin="round" stroke-miterlimit="10" stroke-dasharray="none" stroke-opacity="" data-original="#000000" opacity="1" class=""/>
      <path d="m0 0-3.476-1.037c-59.842-17.547-54.825-72.598-23.545-87.986 22.844-11.24 44.231-8.353 26.489 16.341-8.914 12.362-20.125 33.889 13.033 43.7l42.353 12.556M-63.262 222.698c-17.322-24.469-27.049-66.963 23.264-88.77L87.423 78.624c51.658-22.395 34.644-42.802-.616-53.145L54.854 16.09 109.679 0c65.588 22.564 65.252 76.803-15.866 112.345L-7.456 156.744c-25.815 11.324-46.052 29.628-11.184 41.401 9.502 3.195 15.529 9.053 18.892 15.135 5.494 10.035 8.941 28.619 2.074 36.579-5.774 6.7-17.826 5.831-29.402 1.346-14.099-5.466-27.526-16.229-36.186-28.507z" style="stroke-width:15;stroke-linecap:round;stroke-linejoin:round;stroke-miterlimit:10;stroke-dasharray:none;stroke-opacity:1" transform="translate(201.16 112.416)" fill="none" stroke="#1c5fe7" stroke-width="15" stroke-linecap="round" stroke-linejoin="round" stroke-miterlimit="10" stroke-dasharray="none" stroke-opacity="" data-original="#000000" opacity="1" class=""/>
      <path d="M0 0v186.988m0-302.752v64.581m-33.215-106.906v-66.935c0-9.138 7.485-16.622 16.622-16.622S0-234.162 0-225.024v66.935M-33.215-51.183v-64.581m0 302.752V0" style="stroke-width:15;stroke-linecap:round;stroke-linejoin:round;stroke-miterlimit:10;stroke-dasharray:none;stroke-opacity:1" transform="translate(272.606 249.147)" fill="none" stroke="#1c5fe7" stroke-width="15" stroke-linecap="round" stroke-linejoin="round" stroke-miterlimit="10" stroke-dasharray="none" stroke-opacity="" data-original="#000000" opacity="1" class=""/>
      <path d="m0 0 62.28 27.302c25.843 11.324 46.08 29.628 11.184 41.4-9.474 3.195-15.528 9.054-18.892 15.136-5.493 10.035-8.941 28.619-2.074 36.579 5.803 6.699 17.827 5.831 29.431 1.346 14.071-5.466 27.497-16.23 36.158-28.507 17.322-24.47 27.048-66.963-23.236-88.771L42.016-18.443M-83.892-45.548c10.147 9.39 24.413 18.444 43.025 26.6M0-36.663l-32.599-14.155c-51.658-22.396-34.643-42.802.618-53.145l90.282-26.516c59.842-17.547 54.825-72.598 23.544-87.987-22.844-11.239-44.23-8.352-26.488 16.342 8.914 12.361 20.125 33.889-13.005 43.699l-91.123 27.021c-38.26 11.352-57.236 32.234-53.844 54.799" style="stroke-width:15;stroke-linecap:round;stroke-linejoin:round;stroke-miterlimit:10;stroke-dasharray:none;stroke-opacity:1" transform="translate(256.014 241.858)" fill="none" stroke="#1c5fe7" stroke-width="15" stroke-linecap="round" stroke-linejoin="round" stroke-miterlimit="10" stroke-dasharray="none" stroke-opacity="" data-original="#000000" opacity="1" class=""/>
      <path d="M0 0c-38.483 3.952-56.114 30.665-58.889 34.477-37.7 52.36-85.012 23.096-154.778 50.314-9.333 3.644-12.444 4.288-12.697-5.662-1.037-38.738 29.459-55.079 81.929-56.061" style="stroke-width:15;stroke-linecap:round;stroke-linejoin:round;stroke-miterlimit:10;stroke-dasharray:none;stroke-opacity:1" transform="translate(239.392 402.78)" fill="none" stroke="#1c5fe7" stroke-width="15" stroke-linecap="round" stroke-linejoin="round" stroke-miterlimit="10" stroke-dasharray="none" stroke-opacity="" data-original="#000000" opacity="1" class=""/>
      <path d="M0 0c-6.53-42.325 21.779-59.872 73.802-60.825" style="stroke-width:15;stroke-linecap:round;stroke-linejoin:round;stroke-miterlimit:10;stroke-dasharray:none;stroke-opacity:1" transform="translate(43.411 434.733)" fill="none" stroke="#1c5fe7" stroke-width="15" stroke-linecap="round" stroke-linejoin="round" stroke-miterlimit="10" stroke-dasharray="none" stroke-opacity="" data-original="#000000" opacity="1" class=""/>
      <path d="M0 0a497.527 497.527 0 0 1 36.83 6.391m-170.109 50.678c-5.859-37.728 31.421-57.574 57.712-59.928" style="stroke-width:15;stroke-linecap:round;stroke-linejoin:round;stroke-miterlimit:10;stroke-dasharray:none;stroke-opacity:1" transform="translate(202.561 325.36)" fill="none" stroke="#1c5fe7" stroke-width="15" stroke-linecap="round" stroke-linejoin="round" stroke-miterlimit="10" stroke-dasharray="none" stroke-opacity="" data-original="#000000" opacity="1" class=""/>
      <path d="M0 0c14.491 1.906 30.104 5.186 47.062 11.801 9.334 3.643 12.417 4.288 12.668-5.662C60.768-32.6 30.271-48.94-22.199-49.922M-166.634-72.99c38.485 3.952 56.143 30.665 58.89 34.476C-86.891-9.559-63.094-5.55-34.195-3.168" style="stroke-width:15;stroke-linecap:round;stroke-linejoin:round;stroke-miterlimit:10;stroke-dasharray:none;stroke-opacity:1" transform="translate(439.24 475.77)" fill="none" stroke="#1c5fe7" stroke-width="15" stroke-linecap="round" stroke-linejoin="round" stroke-miterlimit="10" stroke-dasharray="none" stroke-opacity="" data-original="#000000" opacity="1" class=""/>
      <path d="M0 0c6.559-42.325-21.778-59.872-73.801-60.825" style="stroke-width:15;stroke-linecap:round;stroke-linejoin:round;stroke-miterlimit:10;stroke-dasharray:none;stroke-opacity:1" transform="translate(468.587 434.733)" fill="none" stroke="#1c5fe7" stroke-width="15" stroke-linecap="round" stroke-linejoin="round" stroke-miterlimit="10" stroke-dasharray="none" stroke-opacity="" data-original="#000000" opacity="1" class=""/>
      <path d="M0 0c-11.212 1.514-23.433 3.588-36.606 6.362m170.109 50.679c5.858-37.729-31.421-57.378-57.712-59.929" style="stroke-width:15;stroke-linecap:round;stroke-linejoin:round;stroke-miterlimit:10;stroke-dasharray:none;stroke-opacity:1" transform="translate(309.213 325.389)" fill="none" stroke="#1c5fe7" stroke-width="15" stroke-linecap="round" stroke-linejoin="round" stroke-miterlimit="10" stroke-dasharray="none" stroke-opacity="" data-original="#000000" opacity="1" class=""/>
    </g>
  </g>
</svg>
